<?xml version="1.0" encoding="UTF-8" standalone="no"?>
<svg
   xmlns:dc="http://purl.org/dc/elements/1.1/"
   xmlns:cc="http://creativecommons.org/ns#"
   xmlns:rdf="http://www.w3.org/1999/02/22-rdf-syntax-ns#"
   xmlns:svg="http://www.w3.org/2000/svg"
   xmlns="http://www.w3.org/2000/svg"
   xmlns:sodipodi="http://sodipodi.sourceforge.net/DTD/sodipodi-0.dtd"
   xmlns:inkscape="http://www.inkscape.org/namespaces/inkscape"
   inkscape:version="1.0 (4035a4f, 2020-05-01)"
   sodipodi:docname="ProcessStep1_color.svg"
   id="svg108"
   version="1.1"
   fill="#434190"
   class="bi bi-pencil"
   viewBox="0 0 16 16"
   height="3rem"
   width="3rem">
  <metadata
     id="metadata114">
    <rdf:RDF>
      <cc:Work
         rdf:about="">
        <dc:format>image/svg+xml</dc:format>
        <dc:type
           rdf:resource="http://purl.org/dc/dcmitype/StillImage" />
        <dc:title></dc:title>
      </cc:Work>
    </rdf:RDF>
  </metadata>
  <defs
     id="defs112" />
  <sodipodi:namedview
     inkscape:current-layer="svg108"
     inkscape:window-maximized="0"
     inkscape:window-y="28"
     inkscape:window-x="1706"
     inkscape:cy="14.621924"
     inkscape:cx="3.5436242"
     inkscape:zoom="27.9375"
     showgrid="false"
     id="namedview110"
     inkscape:window-height="638"
     inkscape:window-width="1186"
     inkscape:pageshadow="2"
     inkscape:pageopacity="0"
     guidetolerance="10"
     gridtolerance="10"
     objecttolerance="10"
     borderopacity="1"
     bordercolor="#666666"
     pagecolor="#ffffff" />
  <rect
     y="12.993289"
     x="1.2885906"
     height="1.7897092"
     width="1.3959732"
     id="rect953"
     style="fill:#44aa00" />
  <rect
     y="11.561522"
     x="1.8970917"
     height="2.6487696"
     width="2.2550335"
     id="rect951"
     style="fill:#44aa00" />
  <rect
     y="10.487696"
     x="2.6487696"
     height="3.0067115"
     width="2.7203579"
     id="rect949"
     style="fill:#44aa00" />
  <rect
     transform="matrix(0.7079445,0.70626807,-0.69738361,0.71669805,0,0)"
     ry="0"
     y="-7.9498696"
     x="9.7762547"
     height="1.8041068"
     width="3.2881758"
     id="rect943"
     style="fill:#44aa00;stroke-width:0.95969" />
  <rect
     transform="matrix(0.698293,-0.71581204,0.67344943,0.7392333,0,0)"
     y="9.6157322"
     x="-4.004446"
     height="3.4048576"
     width="9.7674866"
     id="rect945"
     style="fill:#44aa00;stroke-width:1.92075" />
  <path
     id="path106"
     d="M12.146.146a.5.5 0 0 1 .708 0l3 3a.5.5 0 0 1 0 .708l-10 10a.5.5 0 0 1-.168.11l-5 2a.5.5 0 0 1-.65-.65l2-5a.5.5 0 0 1 .11-.168l10-10zM11.207 2.5L13.5 4.793 14.793 3.5 12.5 1.207 11.207 2.5zm1.586 3L10.5 3.207 4 9.707V10h.5a.5.5 0 0 1 .5.5v.5h.5a.5.5 0 0 1 .5.5v.5h.293l6.5-6.5zm-9.761 5.175l-.106.106-1.528 3.821 3.821-1.528.106-.106A.5.5 0 0 1 5 12.5V12h-.5a.5.5 0 0 1-.5-.5V11h-.5a.5.5 0 0 1-.468-.325z"
     fill-rule="evenodd" />
</svg>
