<?xml version="1.0" encoding="UTF-8" standalone="no"?>
<svg
   xmlns:dc="http://purl.org/dc/elements/1.1/"
   xmlns:cc="http://creativecommons.org/ns#"
   xmlns:rdf="http://www.w3.org/1999/02/22-rdf-syntax-ns#"
   xmlns:svg="http://www.w3.org/2000/svg"
   xmlns="http://www.w3.org/2000/svg"
   xmlns:sodipodi="http://sodipodi.sourceforge.net/DTD/sodipodi-0.dtd"
   xmlns:inkscape="http://www.inkscape.org/namespaces/inkscape"
   inkscape:version="1.0 (4035a4f, 2020-05-01)"
   sodipodi:docname="ProcessStep5_color.svg"
   id="svg147"
   version="1.1"
   fill="#434190"
   class="bi bi-bug"
   viewBox="0 0 16 16"
   height="3rem"
   width="3rem">
  <metadata
     id="metadata153">
    <rdf:RDF>
      <cc:Work
         rdf:about="">
        <dc:format>image/svg+xml</dc:format>
        <dc:type
           rdf:resource="http://purl.org/dc/dcmitype/StillImage" />
        <dc:title></dc:title>
      </cc:Work>
    </rdf:RDF>
  </metadata>
  <defs
     id="defs151" />
  <sodipodi:namedview
     inkscape:current-layer="svg147"
     inkscape:window-maximized="0"
     inkscape:window-y="29"
     inkscape:window-x="1694"
     inkscape:cy="14.138776"
     inkscape:cx="7.8258503"
     inkscape:zoom="45.9375"
     showgrid="false"
     id="namedview149"
     inkscape:window-height="643"
     inkscape:window-width="1232"
     inkscape:pageshadow="2"
     inkscape:pageopacity="0"
     guidetolerance="10"
     gridtolerance="10"
     objecttolerance="10"
     borderopacity="1"
     bordercolor="#666666"
     pagecolor="#ffffff" />
  <rect
     y="13.213606"
     x="10.492517"
     height="0.67482996"
     width="0.74013603"
     id="rect183"
     style="fill:#88aa00" />
  <rect
     y="13.061225"
     x="4.2666669"
     height="0.97959185"
     width="1.2190477"
     id="rect181"
     style="fill:#88aa00" />
  <rect
     y="13.061224"
     x="5.2462587"
     height="1.9809524"
     width="5.6598639"
     id="rect177"
     style="fill:#88aa00" />
  <rect
     style="fill:#88aa00;stroke-width:1.54205"
     id="rect160-5"
     width="8.2285719"
     height="6.4705319"
     x="3.7714283"
     y="7" />
  <rect
     y="3.3253863"
     x="3.8530612"
     height="3.0746136"
     width="8.2285719"
     id="rect160"
     style="fill:#88aa00;stroke-width:1.06298" />
  <rect
     y="1.9156462"
     x="4.8544216"
     height="2.5687075"
     width="6.3782315"
     id="rect155"
     style="fill:#88aa00" />
  <path
     id="path145"
     d="M4.355.522a.5.5 0 0 1 .623.333l.291.956A4.979 4.979 0 0 1 8 1c1.007 0 1.946.298 2.731.811l.29-.956a.5.5 0 1 1 .957.29l-.41 1.352A4.985 4.985 0 0 1 13 6h.5a.5.5 0 0 0 .5-.5V5a.5.5 0 0 1 1 0v.5A1.5 1.5 0 0 1 13.5 7H13v1h1.5a.5.5 0 0 1 0 1H13v1h.5a1.5 1.5 0 0 1 1.5 1.5v.5a.5.5 0 1 1-1 0v-.5a.5.5 0 0 0-.5-.5H13a5 5 0 0 1-10 0h-.5a.5.5 0 0 0-.5.5v.5a.5.5 0 1 1-1 0v-.5A1.5 1.5 0 0 1 2.5 10H3V9H1.5a.5.5 0 0 1 0-1H3V7h-.5A1.5 1.5 0 0 1 1 5.5V5a.5.5 0 0 1 1 0v.5a.5.5 0 0 0 .5.5H3c0-1.364.547-2.601 1.432-3.503l-.41-1.352a.5.5 0 0 1 .333-.623zM4 7v4a4 4 0 0 0 3.5 3.97V7H4zm4.5 0v7.97A4 4 0 0 0 12 11V7H8.5zM12 6H4a3.99 3.99 0 0 1 1.333-2.982A3.983 3.983 0 0 1 8 2c1.025 0 1.959.385 2.666 1.018A3.989 3.989 0 0 1 12 6z"
     fill-rule="evenodd" />
</svg>
