<?xml version="1.0" encoding="UTF-8" standalone="no"?>
<svg
   xmlns:dc="http://purl.org/dc/elements/1.1/"
   xmlns:cc="http://creativecommons.org/ns#"
   xmlns:rdf="http://www.w3.org/1999/02/22-rdf-syntax-ns#"
   xmlns:svg="http://www.w3.org/2000/svg"
   xmlns="http://www.w3.org/2000/svg"
   xmlns:sodipodi="http://sodipodi.sourceforge.net/DTD/sodipodi-0.dtd"
   xmlns:inkscape="http://www.inkscape.org/namespaces/inkscape"
   inkscape:version="1.0 (4035a4f, 2020-05-01)"
   sodipodi:docname="ProcessStep4_color.svg"
   id="svg60"
   version="1.1"
   fill="#434190"
   class="bi bi-tools"
   viewBox="0 0 16 16"
   height="3rem"
   width="3rem">
  <metadata
     id="metadata66">
    <rdf:RDF>
      <cc:Work
         rdf:about="">
        <dc:format>image/svg+xml</dc:format>
        <dc:type
           rdf:resource="http://purl.org/dc/dcmitype/StillImage" />
        <dc:title></dc:title>
      </cc:Work>
    </rdf:RDF>
  </metadata>
  <defs
     id="defs64" />
  <sodipodi:namedview
     inkscape:current-layer="svg60"
     inkscape:window-maximized="0"
     inkscape:window-y="27"
     inkscape:window-x="1695"
     inkscape:cy="7.1513957"
     inkscape:cx="5.7349145"
     inkscape:zoom="24.964486"
     showgrid="false"
     id="namedview62"
     inkscape:window-height="631"
     inkscape:window-width="1235"
     inkscape:pageshadow="2"
     inkscape:pageopacity="0"
     guidetolerance="10"
     gridtolerance="10"
     objecttolerance="10"
     borderopacity="1"
     bordercolor="#666666"
     pagecolor="#ffffff" />
  <ellipse
     ry="2.2788639"
     rx="2.1444669"
     cy="12.998466"
     cx="3.0242963"
     id="path70"
     style="fill:#88aa00" />
  <rect
     transform="matrix(0.73528691,0.67775597,-0.66331325,0.74834185,0,0)"
     y="-0.080516905"
     x="14.942729"
     height="1.6287804"
     width="5.4328403"
     id="rect68"
     style="fill:#88aa00;stroke-width:1.06899" />
  <path
     id="path56"
     d="M0 1l1-1 3.081 2.2a1 1 0 0 1 .419.815v.07a1 1 0 0 0 .293.708L10.5 9.5l.914-.305a1 1 0 0 1 1.023.242l3.356 3.356a1 1 0 0 1 0 1.414l-1.586 1.586a1 1 0 0 1-1.414 0l-3.356-3.356a1 1 0 0 1-.242-1.023L9.5 10.5 3.793 4.793a1 1 0 0 0-.707-.293h-.071a1 1 0 0 1-.814-.419L0 1zm11.354 9.646a.5.5 0 0 0-.708.708l3 3a.5.5 0 0 0 .708-.708l-3-3z"
     fill-rule="evenodd" />
  <path
     id="path58"
     d="M15.898 2.223a3.003 3.003 0 0 1-3.679 3.674L5.878 12.15a3 3 0 1 1-2.027-2.027l6.252-6.341A3 3 0 0 1 13.778.1l-2.142 2.142L12 4l1.757.364 2.141-2.141zm-13.37 9.019L3.001 11l.471.242.529.026.287.445.445.287.026.529L5 13l-.242.471-.026.529-.445.287-.287.445-.529.026L3 15l-.471-.242L2 14.732l-.287-.445L1.268 14l-.026-.529L1 13l.242-.471.026-.529.445-.287.287-.445.529-.026z"
     fill-rule="evenodd" />
</svg>
