<?xml version="1.0" encoding="UTF-8" standalone="no"?>
<svg
   xmlns:dc="http://purl.org/dc/elements/1.1/"
   xmlns:cc="http://creativecommons.org/ns#"
   xmlns:rdf="http://www.w3.org/1999/02/22-rdf-syntax-ns#"
   xmlns:svg="http://www.w3.org/2000/svg"
   xmlns="http://www.w3.org/2000/svg"
   xmlns:sodipodi="http://sodipodi.sourceforge.net/DTD/sodipodi-0.dtd"
   xmlns:inkscape="http://www.inkscape.org/namespaces/inkscape"
   inkscape:version="1.0 (4035a4f, 2020-05-01)"
   sodipodi:docname="ProcessStep3_color.svg"
   id="svg56"
   version="1.1"
   fill="#434190"
   class="bi bi-person-plus"
   viewBox="0 0 16 16"
   height="3rem"
   width="3rem">
  <metadata
     id="metadata62">
    <rdf:RDF>
      <cc:Work
         rdf:about="">
        <dc:format>image/svg+xml</dc:format>
        <dc:type
           rdf:resource="http://purl.org/dc/dcmitype/StillImage" />
        <dc:title></dc:title>
      </cc:Work>
    </rdf:RDF>
  </metadata>
  <defs
     id="defs60" />
  <sodipodi:namedview
     inkscape:current-layer="svg56"
     inkscape:window-maximized="0"
     inkscape:window-y="29"
     inkscape:window-x="1697"
     inkscape:cy="8.2505593"
     inkscape:cx="8.7337808"
     inkscape:zoom="27.9375"
     showgrid="false"
     id="namedview58"
     inkscape:window-height="641"
     inkscape:window-width="1238"
     inkscape:pageshadow="2"
     inkscape:pageopacity="0"
     guidetolerance="10"
     gridtolerance="10"
     objecttolerance="10"
     borderopacity="1"
     bordercolor="#666666"
     pagecolor="#ffffff" />
  <rect
     y="9.7360182"
     x="3.9731543"
     height="1.2170023"
     width="4.0447426"
     id="rect72"
     style="fill:#88aa00" />
  <rect
     y="10.129754"
     x="2.0044742"
     height="1.753915"
     width="7.9821029"
     id="rect70"
     style="fill:#88aa00" />
  <rect
     y="11.131991"
     x="0.96644294"
     height="2.2908278"
     width="10.201343"
     id="rect68"
     style="fill:#88aa00" />
  <ellipse
     ry="2.2550335"
     rx="2.2729306"
     cy="5.0111856"
     cx="6.0671144"
     id="path64"
     style="fill:#88aa00" />
  <path
     id="path54"
     d="M8 5a2 2 0 1 1-4 0 2 2 0 0 1 4 0zM6 8a3 3 0 1 0 0-6 3 3 0 0 0 0 6zm6 5c0 1-1 1-1 1H1s-1 0-1-1 1-4 6-4 6 3 6 4zm-1-.004c-.001-.246-.154-.986-.832-1.664C9.516 10.68 8.289 10 6 10c-2.29 0-3.516.68-4.168 1.332-.678.678-.83 1.418-.832 1.664h10zM13.5 5a.5.5 0 0 1 .5.5V7h1.5a.5.5 0 0 1 0 1H14v1.5a.5.5 0 0 1-1 0V8h-1.5a.5.5 0 0 1 0-1H13V5.5a.5.5 0 0 1 .5-.5z"
     fill-rule="evenodd" />
  <ellipse
     ry="0.10738255"
     rx="0.34004474"
     cy="4.3668904"
     cx="6.0671139"
     id="path66"
     style="fill:#88aa00" />
</svg>
